<svg width="16" height="16" viewBox="0 0 16 16" fill="none" xmlns="http://www.w3.org/2000/svg">
<g clip-path="url(#clip0)">
<path d="M7.99756 15.6695C12.2349 15.6695 15.6699 12.2344 15.6699 7.99711C15.6699 3.75977 12.2349 0.324738 7.99756 0.324738C3.76023 0.324738 0.325195 3.75977 0.325195 7.99711C0.325195 12.2344 3.76023 15.6695 7.99756 15.6695Z" fill="#673AB7" stroke="#E91E63" stroke-width="44"/>
<path d="M10.9668 9.06273C10.9668 8.88339 11.1121 8.73801 11.2915 8.73801C11.4708 8.73801 11.6162 8.88339 11.6162 9.06273C11.6162 9.24207 11.4708 9.38745 11.2915 9.38745C11.1121 9.38745 10.9668 9.24207 10.9668 9.06273Z" fill="#90CAF9"/>
<path d="M12.5903 8.73801H13.2397C13.4191 8.73801 13.5645 8.88339 13.5645 9.06273C13.5645 9.24207 13.4191 9.38745 13.2397 9.38745H12.5903C12.4109 9.38745 12.2656 9.24207 12.2656 9.06273C12.2656 8.88339 12.4109 8.73801 12.5903 8.73801Z" fill="#FFE082"/>
<path d="M4.148 8.73801H3.49855C3.31921 8.73801 3.17383 8.88339 3.17383 9.06273C3.17383 9.24207 3.31921 9.38745 3.49855 9.38745H4.148C4.32734 9.38745 4.47272 9.24207 4.47272 9.06273C4.47272 8.88339 4.32734 8.73801 4.148 8.73801Z" fill="#9FA8DA"/>
<path d="M9.99292 8.73801H5.44679C5.26745 8.73801 5.12207 8.88339 5.12207 9.06273C5.12207 9.24207 5.26745 9.38745 5.44679 9.38745H9.99292C10.1723 9.38745 10.3176 9.24207 10.3176 9.06273C10.3176 8.88339 10.1723 8.73801 9.99292 8.73801Z" fill="#FFCC80"/>
<path d="M3.49849 11.3358H4.14793C4.32727 11.3358 4.47266 11.4812 4.47266 11.6605C4.47266 11.8398 4.32727 11.9852 4.14793 11.9852H3.49849C3.31915 11.9852 3.17376 11.8398 3.17376 11.6605C3.17376 11.4812 3.31915 11.3358 3.49849 11.3358Z" fill="#80DEEA"/>
<path d="M5.44653 11.3358H9.99266C10.172 11.3358 10.3174 11.4812 10.3174 11.6605C10.3174 11.8398 10.172 11.9852 9.99266 11.9852H5.44653C5.26719 11.9852 5.12181 11.8398 5.12181 11.6605C5.12181 11.4812 5.26719 11.3358 5.44653 11.3358Z" fill="#E6EE9C"/>
<path d="M3.42477 7.76384C3.42477 7.5845 3.57016 7.43912 3.7495 7.43912C3.92884 7.43912 4.07422 7.5845 4.07422 7.76384C4.07422 7.94318 3.92884 8.08856 3.7495 8.08856C3.57016 8.08856 3.42477 7.94318 3.42477 7.76384Z" fill="#B39DDB"/>
<path d="M1.80122 7.43912H2.45067C2.63001 7.43912 2.77539 7.5845 2.77539 7.76384C2.77539 7.94318 2.63001 8.08856 2.45067 8.08856H1.80122C1.62188 8.08856 1.4765 7.94318 1.4765 7.76384C1.4765 7.5845 1.62188 7.43912 1.80122 7.43912Z" fill="#FFAB91"/>
<path d="M15.1148 7.76384C15.1148 7.5845 14.9694 7.43912 14.7901 7.43912H5.04836C4.86902 7.43912 4.72363 7.5845 4.72363 7.76384C4.72363 7.94318 4.86902 8.08856 5.04836 8.08856H14.7901C14.9694 8.08856 15.1148 7.94318 15.1148 7.76384Z" fill="#BCAAA4"/>
<path d="M3.17383 5.16606C3.17383 4.98673 3.31922 4.84134 3.49855 4.84134H13.2402C13.4196 4.84134 13.565 4.98673 13.565 5.16606C13.565 5.3454 13.4196 5.49079 13.2402 5.49079H3.49855C3.31922 5.49079 3.17383 5.3454 3.17383 5.16606Z" fill="#F48FB1"/>
<path d="M4.07425 3.86717C4.07425 3.68783 3.92887 3.54245 3.74953 3.54245C3.57019 3.54245 3.4248 3.68783 3.4248 3.86717C3.4248 4.04651 3.57019 4.1919 3.74953 4.1919C3.92887 4.1919 4.07425 4.04651 4.07425 3.86717Z" fill="#EF9A9A"/>
<path d="M5.6978 3.54245H5.04836C4.86902 3.54245 4.72363 3.68783 4.72363 3.86717C4.72363 4.04651 4.86902 4.1919 5.04836 4.1919H5.6978C5.87714 4.1919 6.02253 4.04651 6.02253 3.86717C6.02253 3.68783 5.87714 3.54245 5.6978 3.54245Z" fill="#B0BEC5"/>
<path d="M9.99272 6.14023H9.34328C9.16394 6.14023 9.01855 6.28561 9.01855 6.46495C9.01855 6.64429 9.16394 6.78967 9.34328 6.78967H9.99272C10.1721 6.78967 10.3174 6.64429 10.3174 6.46495C10.3174 6.28561 10.1721 6.14023 9.99272 6.14023Z" fill="#81D4FA"/>
<path d="M8.04468 6.14023H3.49855C3.31921 6.14023 3.17383 6.28561 3.17383 6.46495C3.17383 6.64429 3.31921 6.78967 3.49855 6.78967H8.04468C8.22402 6.78967 8.3694 6.64429 8.3694 6.46495C8.3694 6.28561 8.22402 6.14023 8.04468 6.14023Z" fill="#FFF59D"/>
<path d="M9.99272 10.0369H9.34328C9.16394 10.0369 9.01855 10.1823 9.01855 10.3616C9.01855 10.541 9.16394 10.6863 9.34328 10.6863H9.99272C10.1721 10.6863 10.3174 10.541 10.3174 10.3616C10.3174 10.1823 10.1721 10.0369 9.99272 10.0369Z" fill="#CE93D8"/>
<path d="M8.04468 10.0369H3.49855C3.31921 10.0369 3.17383 10.1823 3.17383 10.3616C3.17383 10.541 3.31921 10.6863 3.49855 10.6863H8.04468C8.22402 10.6863 8.3694 10.541 8.3694 10.3616C8.3694 10.1823 8.22402 10.0369 8.04468 10.0369Z" fill="#EEEEEE"/>
<path d="M10.3174 12.9594C10.3174 12.7801 10.172 12.6347 9.99269 12.6347C9.81335 12.6347 9.66797 12.7801 9.66797 12.9594C9.66797 13.1387 9.81335 13.2841 9.99269 13.2841C10.172 13.2841 10.3174 13.1387 10.3174 12.9594Z" fill="#C5E1A5"/>
<path d="M8.6939 12.6347H8.04445C7.86511 12.6347 7.71973 12.7801 7.71973 12.9594C7.71973 13.1387 7.86511 13.2841 8.04445 13.2841H8.6939C8.87324 13.2841 9.01862 13.1387 9.01862 12.9594C9.01862 12.7801 8.87324 12.6347 8.6939 12.6347Z" fill="#80CBC4"/>
</g>
<defs>
<clipPath id="clip0">
<rect width="16" height="16" fill="white"/>
</clipPath>
</defs>
</svg>
