<?xml version="1.0" standalone="no"?>
<!DOCTYPE svg PUBLIC "-//W3C//DTD SVG 20010904//EN"
 "http://www.w3.org/TR/2001/REC-SVG-20010904/DTD/svg10.dtd">
<svg version="1.0" xmlns="http://www.w3.org/2000/svg"
 width="700.000000pt" height="700.000000pt" viewBox="0 0 700.000000 700.000000"
 preserveAspectRatio="xMidYMid meet">
<metadata>
Created by potrace 1.11, written by Peter Selinger 2001-2013
</metadata>
<g transform="translate(0.000000,700.000000) scale(0.100000,-0.100000)"
fill="#000000" stroke="none">
<path d="M3328 6855 c-2 -1 -43 -5 -93 -9 -49 -3 -108 -8 -130 -11 -22 -3 -60
-7 -85 -10 -25 -3 -52 -8 -60 -10 -8 -2 -31 -6 -50 -9 -19 -3 -68 -12 -109
-21 -751 -158 -1439 -582 -1917 -1180 -44 -55 -86 -110 -94 -122 -8 -12 -35
-49 -58 -83 -177 -252 -353 -613 -435 -890 -50 -169 -66 -226 -72 -258 -3 -18
-12 -63 -19 -100 -8 -37 -17 -87 -21 -112 -3 -25 -10 -72 -15 -105 -31 -207
-33 -610 -4 -840 94 -756 439 -1455 979 -1982 141 -138 172 -165 291 -258 454
-355 1024 -599 1579 -675 44 -6 94 -13 110 -15 133 -18 424 -24 610 -12 140 9
359 41 500 73 910 208 1682 772 2160 1579 109 184 218 425 290 640 33 101 91
316 101 375 3 14 9 48 14 75 14 73 18 96 25 161 4 33 9 70 11 84 22 140 22
568 0 725 -3 17 -10 68 -16 115 -33 247 -99 499 -197 750 -55 139 -187 406
-248 501 -25 38 -45 72 -45 75 0 3 -18 29 -40 59 -22 30 -40 57 -40 60 0 6
-119 161 -189 245 -67 81 -302 317 -372 375 -34 28 -67 55 -73 60 -71 65 -287
215 -427 298 -325 191 -760 349 -1119 406 -36 6 -74 13 -85 15 -11 2 -54 7
-95 11 -41 4 -84 9 -95 12 -22 4 -462 12 -467 8z"/>
</g>
</svg>
