<svg width="44" height="44" viewBox="0 0 44 44" fill="none" xmlns="http://www.w3.org/2000/svg">
<path d="M21.9916 43.091C33.6443 43.091 43.0906 33.6446 43.0906 21.992C43.0906 10.3393 33.6443 0.892975 21.9916 0.892975C10.3389 0.892975 0.892578 10.3393 0.892578 21.992C0.892578 33.6446 10.3389 43.091 21.9916 43.091Z" fill="#673AB7"/>
<path d="M30.1584 24.9225C30.1584 24.4293 30.5582 24.0295 31.0513 24.0295C31.5445 24.0295 31.9443 24.4293 31.9443 24.9225C31.9443 25.4157 31.5445 25.8155 31.0513 25.8155C30.5582 25.8155 30.1584 25.4157 30.1584 24.9225Z" fill="#90CAF9"/>
<path d="M34.6238 24.0295H36.4097C36.9029 24.0295 37.3027 24.4293 37.3027 24.9225C37.3027 25.4157 36.9029 25.8155 36.4097 25.8155H34.6238C34.1306 25.8155 33.7308 25.4157 33.7308 24.9225C33.7308 24.4293 34.1306 24.0295 34.6238 24.0295Z" fill="#FFE082"/>
<path d="M11.4055 24.0295H9.61955C9.12637 24.0295 8.72656 24.4293 8.72656 24.9225C8.72656 25.4157 9.12637 25.8155 9.61955 25.8155H11.4055C11.8987 25.8155 12.2985 25.4157 12.2985 24.9225C12.2985 24.4293 11.8987 24.0295 11.4055 24.0295Z" fill="#9FA8DA"/>
<path d="M27.4798 24.0295H14.9779C14.4848 24.0295 14.085 24.4293 14.085 24.9225C14.085 25.4157 14.4848 25.8155 14.9779 25.8155H27.4798C27.973 25.8155 28.3728 25.4157 28.3728 24.9225C28.3728 24.4293 27.973 24.0295 27.4798 24.0295Z" fill="#FFCC80"/>
<path d="M9.61986 31.1734H11.4058C11.899 31.1734 12.2988 31.5732 12.2988 32.0664C12.2988 32.5596 11.899 32.9594 11.4058 32.9594H9.61986C9.12668 32.9594 8.72687 32.5596 8.72687 32.0664C8.72687 31.5732 9.12668 31.1734 9.61986 31.1734Z" fill="#80DEEA"/>
<path d="M14.9782 31.1734H27.4801C27.9732 31.1734 28.373 31.5732 28.373 32.0664C28.373 32.5596 27.9732 32.9594 27.4801 32.9594H14.9782C14.485 32.9594 14.0852 32.5596 14.0852 32.0664C14.0852 31.5732 14.485 31.1734 14.9782 31.1734Z" fill="#E6EE9C"/>
<path d="M9.41715 21.3506C9.41715 20.8574 9.81695 20.4576 10.3101 20.4576C10.8033 20.4576 11.2031 20.8574 11.2031 21.3506C11.2031 21.8438 10.8033 22.2436 10.3101 22.2436C9.81695 22.2436 9.41715 21.8438 9.41715 21.3506Z" fill="#B39DDB"/>
<path d="M4.95189 20.4576H6.73787C7.23105 20.4576 7.63086 20.8574 7.63086 21.3506C7.63086 21.8438 7.23105 22.2436 6.73787 22.2436H4.95189C4.45871 22.2436 4.0589 21.8438 4.0589 21.3506C4.0589 20.8574 4.45871 20.4576 4.95189 20.4576Z" fill="#FFAB91"/>
<path d="M41.5649 21.3506C41.5649 20.8574 41.1651 20.4576 40.6719 20.4576H13.8822C13.3891 20.4576 12.9893 20.8574 12.9893 21.3506C12.9893 21.8437 13.3891 22.2436 13.8822 22.2436H40.6719C41.1651 22.2436 41.5649 21.8437 41.5649 21.3506Z" fill="#BCAAA4"/>
<path d="M8.72656 14.2066C8.72656 13.7135 9.12638 13.3137 9.61955 13.3137H36.4092C36.9024 13.3137 37.3022 13.7135 37.3022 14.2066C37.3022 14.6998 36.9024 15.0996 36.4092 15.0996H9.61955C9.12638 15.0996 8.72656 14.6998 8.72656 14.2066Z" fill="#F48FB1"/>
<path d="M11.203 10.6347C11.203 10.1415 10.8032 9.7417 10.31 9.7417C9.8168 9.7417 9.41699 10.1415 9.41699 10.6347C9.41699 11.1279 9.8168 11.5277 10.31 11.5277C10.8032 11.5277 11.203 11.1279 11.203 10.6347Z" fill="#EF9A9A"/>
<path d="M15.6682 9.7417H13.8822C13.3891 9.7417 12.9893 10.1415 12.9893 10.6347C12.9893 11.1279 13.3891 11.5277 13.8822 11.5277H15.6682C16.1614 11.5277 16.5612 11.1279 16.5612 10.6347C16.5612 10.1415 16.1614 9.7417 15.6682 9.7417Z" fill="#B0BEC5"/>
<path d="M27.4797 16.8856H25.6938C25.2006 16.8856 24.8008 17.2854 24.8008 17.7786C24.8008 18.2718 25.2006 18.6716 25.6938 18.6716H27.4797C27.9729 18.6716 28.3727 18.2718 28.3727 17.7786C28.3727 17.2854 27.9729 16.8856 27.4797 16.8856Z" fill="#81D4FA"/>
<path d="M22.1214 16.8856H9.61955C9.12637 16.8856 8.72656 17.2854 8.72656 17.7786C8.72656 18.2718 9.12637 18.6716 9.61955 18.6716H22.1214C22.6146 18.6716 23.0144 18.2718 23.0144 17.7786C23.0144 17.2854 22.6146 16.8856 22.1214 16.8856Z" fill="#FFF59D"/>
<path d="M27.4797 27.6015H25.6938C25.2006 27.6015 24.8008 28.0013 24.8008 28.4945C24.8008 28.9876 25.2006 29.3874 25.6938 29.3874H27.4797C27.9729 29.3874 28.3727 28.9876 28.3727 28.4945C28.3727 28.0013 27.9729 27.6015 27.4797 27.6015Z" fill="#CE93D8"/>
<path d="M22.1214 27.6015H9.61955C9.12637 27.6015 8.72656 28.0013 8.72656 28.4945C8.72656 28.9876 9.12637 29.3874 9.61955 29.3874H22.1214C22.6146 29.3874 23.0144 28.9876 23.0144 28.4945C23.0144 28.0013 22.6146 27.6015 22.1214 27.6015Z" fill="#EEEEEE"/>
<path d="M28.3729 35.6384C28.3729 35.1452 27.9731 34.7454 27.4799 34.7454C26.9867 34.7454 26.5869 35.1452 26.5869 35.6384C26.5869 36.1316 26.9867 36.5314 27.4799 36.5314C27.9731 36.5314 28.3729 36.1316 28.3729 35.6384Z" fill="#C5E1A5"/>
<path d="M23.9075 34.7454H22.1215C21.6283 34.7454 21.2285 35.1452 21.2285 35.6384C21.2285 36.1316 21.6283 36.5314 22.1215 36.5314H23.9075C24.4007 36.5314 24.8005 36.1316 24.8005 35.6384C24.8005 35.1452 24.4007 34.7454 23.9075 34.7454Z" fill="#80CBC4"/>
</svg>
