<svg width="800" height="800" viewBox="0 0 800 800" fill="none" xmlns="http://www.w3.org/2000/svg">
<path d="M399.856 783.473C611.722 783.473 783.474 611.721 783.474 399.854C783.474 187.988 611.722 16.2359 399.856 16.2359C187.989 16.2359 16.2373 187.988 16.2373 399.854C16.2373 611.721 187.989 783.473 399.856 783.473Z" fill="#673AB7"/>
<path d="M548.342 453.136C548.342 444.169 555.611 436.9 564.578 436.9C573.545 436.9 580.814 444.169 580.814 453.136C580.814 462.103 573.545 469.372 564.578 469.372C555.611 469.372 548.342 462.103 548.342 453.136Z" fill="#90CAF9"/>
<path d="M629.523 436.9H661.995C670.962 436.9 678.231 444.169 678.231 453.136C678.231 462.103 670.962 469.372 661.995 469.372H629.523C620.556 469.372 613.287 462.103 613.287 453.136C613.287 444.169 620.556 436.9 629.523 436.9Z" fill="#FFE082"/>
<path d="M207.382 436.9H174.909C165.943 436.9 158.673 444.169 158.673 453.136C158.673 462.103 165.943 469.372 174.909 469.372H207.382C216.349 469.372 223.618 462.103 223.618 453.136C223.618 444.169 216.349 436.9 207.382 436.9Z" fill="#9FA8DA"/>
<path d="M499.633 436.9H272.326C263.36 436.9 256.09 444.169 256.09 453.136C256.09 462.103 263.36 469.372 272.326 469.372H499.633C508.6 469.372 515.869 462.103 515.869 453.136C515.869 444.169 508.6 436.9 499.633 436.9Z" fill="#FFCC80"/>
<path d="M174.907 566.79H207.38C216.347 566.79 223.616 574.059 223.616 583.026C223.616 591.993 216.347 599.262 207.38 599.262H174.907C165.94 599.262 158.671 591.993 158.671 583.026C158.671 574.059 165.94 566.79 174.907 566.79Z" fill="#80DEEA"/>
<path d="M272.323 566.79H499.629C508.596 566.79 515.865 574.059 515.865 583.026C515.865 591.993 508.596 599.262 499.629 599.262H272.323C263.356 599.262 256.087 591.993 256.087 583.026C256.087 574.059 263.356 566.79 272.323 566.79Z" fill="#E6EE9C"/>
<path d="M171.22 388.192C171.22 379.225 178.489 371.956 187.456 371.956C196.423 371.956 203.692 379.225 203.692 388.192C203.692 397.159 196.423 404.428 187.456 404.428C178.489 404.428 171.22 397.159 171.22 388.192Z" fill="#B39DDB"/>
<path d="M90.0352 371.956H122.507C131.474 371.956 138.744 379.225 138.744 388.192C138.744 397.159 131.474 404.428 122.507 404.428H90.0352C81.0682 404.428 73.799 397.159 73.799 388.192C73.799 379.225 81.0682 371.956 90.0352 371.956Z" fill="#FFAB91"/>
<path d="M755.717 388.192C755.717 379.225 748.448 371.956 739.481 371.956H252.396C243.429 371.956 236.16 379.225 236.16 388.192C236.16 397.159 243.429 404.428 252.396 404.428H739.481C748.448 404.428 755.717 397.159 755.717 388.192Z" fill="#BCAAA4"/>
<path d="M158.673 258.303C158.673 249.336 165.943 242.066 174.91 242.066H661.994C670.961 242.066 678.231 249.336 678.231 258.303C678.231 267.269 670.961 274.539 661.994 274.539H174.91C165.943 274.539 158.673 267.269 158.673 258.303Z" fill="#F48FB1"/>
<path d="M203.691 193.358C203.691 184.391 196.422 177.122 187.455 177.122C178.488 177.122 171.219 184.391 171.219 193.358C171.219 202.325 178.488 209.594 187.455 209.594C196.422 209.594 203.691 202.325 203.691 193.358Z" fill="#EF9A9A"/>
<path d="M284.868 177.122H252.396C243.429 177.122 236.16 184.391 236.16 193.358C236.16 202.325 243.429 209.594 252.396 209.594H284.868C293.835 209.594 301.104 202.325 301.104 193.358C301.104 184.391 293.835 177.122 284.868 177.122Z" fill="#B0BEC5"/>
<path d="M499.632 307.011H467.16C458.193 307.011 450.923 314.28 450.923 323.247C450.923 332.214 458.193 339.484 467.16 339.484H499.632C508.599 339.484 515.868 332.214 515.868 323.247C515.868 314.28 508.599 307.011 499.632 307.011Z" fill="#81D4FA"/>
<path d="M402.216 307.011H174.91C165.943 307.011 158.673 314.28 158.673 323.247C158.673 332.214 165.943 339.484 174.91 339.484H402.216C411.183 339.484 418.452 332.214 418.452 323.247C418.452 314.28 411.183 307.011 402.216 307.011Z" fill="#FFF59D"/>
<path d="M499.632 501.845H467.16C458.193 501.845 450.923 509.114 450.923 518.081C450.923 527.048 458.193 534.317 467.16 534.317H499.632C508.599 534.317 515.868 527.048 515.868 518.081C515.868 509.114 508.599 501.845 499.632 501.845Z" fill="#CE93D8"/>
<path d="M402.216 501.845H174.91C165.943 501.845 158.673 509.114 158.673 518.081C158.673 527.048 165.943 534.317 174.91 534.317H402.216C411.183 534.317 418.452 527.048 418.452 518.081C418.452 509.114 411.183 501.845 402.216 501.845Z" fill="#EEEEEE"/>
<path d="M515.871 647.971C515.871 639.004 508.602 631.734 499.635 631.734C490.668 631.734 483.398 639.004 483.398 647.971C483.398 656.937 490.668 664.207 499.635 664.207C508.602 664.207 515.871 656.937 515.871 647.971Z" fill="#C5E1A5"/>
<path d="M434.69 631.734H402.218C393.251 631.734 385.981 639.004 385.981 647.971C385.981 656.937 393.251 664.207 402.218 664.207H434.69C443.657 664.207 450.926 656.937 450.926 647.971C450.926 639.004 443.657 631.734 434.69 631.734Z" fill="#80CBC4"/>
</svg>
